<svg id="Layer_1" data-name="Layer 1" xmlns="http://www.w3.org/2000/svg" viewBox="0 0 512 512"><title>jpg</title><rect x="0.04" width="511.91" height="512" fill="#5f8eae"/><path d="M380.08,189.22,272.33,81.48a8,8,0,0,0-4.88-2H141.35a16,16,0,0,0-5.47,1.16l-4.81,4.81a16.24,16.24,0,0,0-1.17,5.46V421.11a16.31,16.31,0,0,0,1.17,5.47l4.81,4.8a16,16,0,0,0,5.47,1.17H370.67a16.12,16.12,0,0,0,5.47-1.17l4.8-4.8a16,16,0,0,0,1.17-5.47v-227A8,8,0,0,0,380.08,189.22Zm-5.24,233.55-2.51,2.51a9.23,9.23,0,0,1-1.67.27H141.35a9.16,9.16,0,0,1-1.69-.27l-2.51-2.51a8.86,8.86,0,0,1-.26-1.67V90.89a8.81,8.81,0,0,1,.26-1.66l2.51-2.52a9.16,9.16,0,0,1,1.69-.27H264.47V197H375.11V421.11A8.92,8.92,0,0,1,374.85,422.78Z" fill="#fff"/><path d="M370.67,436.22H141.35a19.71,19.71,0,0,1-7-1.49,3.62,3.62,0,0,1-1.1-.76l-4.8-4.8a3.62,3.62,0,0,1-.75-1.09,19.38,19.38,0,0,1-1.5-7V90.89a19.37,19.37,0,0,1,1.5-7,3.37,3.37,0,0,1,.75-1.09l4.8-4.81a3.71,3.71,0,0,1,1.11-.76,19.71,19.71,0,0,1,7-1.48h126.1a11.63,11.63,0,0,1,7.48,3.09L382.68,186.62a11.65,11.65,0,0,1,3.09,7.49v227a19.61,19.61,0,0,1-1.48,7,3.66,3.66,0,0,1-.76,1.09l-4.8,4.8a3.62,3.62,0,0,1-1.1.76A19.63,19.63,0,0,1,370.67,436.22ZM140.57,421l.9.9H370.55l.89-.9V200.7h-107a3.69,3.69,0,0,1-3.68-3.68l0-106.9H141.46l-.91.9ZM268.15,193.34h107a3.69,3.69,0,0,1,3.31,2.07v-1.31a4.48,4.48,0,0,0-1-2.28L269.72,84.08a4.43,4.43,0,0,0-2.27-.95H266.1a4,4,0,0,1,1,.7,3.68,3.68,0,0,1,1.07,2.6Z" fill="#fff"/><path d="M373.57,270H138.41a6.56,6.56,0,0,0-6.57,6.56v95.1a6.57,6.57,0,0,0,6.57,6.56H373.57a6.57,6.57,0,0,0,6.6-6.56v-95.1A6.57,6.57,0,0,0,373.57,270ZM216.11,330.29c0,8-1.85,14.2-5.59,18.48s-9.12,6.42-16.19,6.42a22.81,22.81,0,0,1-8.76-1.64V340.86a12.55,12.55,0,0,0,7.79,2.63q9.26,0,9.27-13.74v-35.7h13.48Zm48.33-2.45q-6.51,5.6-17.41,5.59h-6.45v20.7H227V294.05h21.21q22.7,0,22.72,19.15A18.32,18.32,0,0,1,264.44,327.84Zm62,22.27q-8.8,5.07-21.87,5.07-14.5,0-22.85-8t-8.36-22.11q0-14.17,9.14-23.09t24.3-8.93a49.13,49.13,0,0,1,16.84,2.65v12.69q-7-4-17-4a18.28,18.28,0,0,0-13.73,5.47q-5.3,5.47-5.29,14.61c0,6.17,1.58,10.94,4.75,14.34s7.46,5.06,12.85,5.06a17.9,17.9,0,0,0,7.72-1.38V330.72h-12V319.91h25.55Z" fill="#fff"/><path d="M245.9,304.44h-5.32v18.73h5.32q10.82,0,10.81-9.47Q256.71,304.44,245.9,304.44Z" fill="#fff"/></svg>