<svg id="Layer_1" data-name="Layer 1" xmlns="http://www.w3.org/2000/svg" viewBox="0 0 512 512"><title>pdf</title><rect width="512" height="512" fill="#fbc132"/><path d="M380.1,189.21,272.33,81.45a8,8,0,0,0-4.88-2H141.31a16.38,16.38,0,0,0-5.47,1.16L131,85.41a15.92,15.92,0,0,0-1.17,5.46V421.13a16,16,0,0,0,1.17,5.48l4.8,4.8a16.22,16.22,0,0,0,5.47,1.17H370.68a16.1,16.1,0,0,0,5.47-1.17l4.81-4.8a16.37,16.37,0,0,0,1.16-5.48v-227A8,8,0,0,0,380.1,189.21Zm-5.24,233.6-2.5,2.51a9.88,9.88,0,0,1-1.68.27H141.31a9.94,9.94,0,0,1-1.67-.27l-2.51-2.51a8.89,8.89,0,0,1-.26-1.68V90.87a8.84,8.84,0,0,1,.26-1.67l2.51-2.52a8.61,8.61,0,0,1,1.67-.27H264.47V197H375.13V421.13A8.37,8.37,0,0,1,374.86,422.81Z" fill="#fff"/><path d="M370.68,436.25H141.31a19.55,19.55,0,0,1-7-1.5,3.61,3.61,0,0,1-1.1-.75l-4.8-4.8a3.7,3.7,0,0,1-.76-1.1,19.67,19.67,0,0,1-1.48-7V90.87a19.29,19.29,0,0,1,1.5-7,3.37,3.37,0,0,1,.75-1.09l4.8-4.82a3.52,3.52,0,0,1,1.13-.77,19.84,19.84,0,0,1,6.94-1.47H267.45a11.69,11.69,0,0,1,7.48,3.1L382.7,186.61a11.66,11.66,0,0,1,3.1,7.5v227a20.05,20.05,0,0,1-1.47,7,3.67,3.67,0,0,1-.77,1.12l-4.81,4.8a3.49,3.49,0,0,1-1.09.75A19.59,19.59,0,0,1,370.68,436.25ZM140.54,421l.88.89H370.56l.89-.89V200.68h-107a3.69,3.69,0,0,1-3.68-3.67V90.09H141.42l-.9.9Zm127.6-227.69h107a3.68,3.68,0,0,1,3.32,2.08v-1.3a4.5,4.5,0,0,0-1-2.31L269.73,84.05a4.59,4.59,0,0,0-2.29-.95h-1.36a3.67,3.67,0,0,1,2.07,3.31Z" fill="#fff"/><path d="M253.5,305.1h-6.62v38.1h6.7q8.8,0,13.82-5.27t5-14.39q0-8.57-5-13.52T253.5,305.1Z" fill="#fff"/><path d="M201.7,304.47h-5.31V323.2h5.31q10.83,0,10.83-9.47Q212.53,304.46,201.7,304.47Z" fill="#fff"/><path d="M373.6,270H138.39a6.56,6.56,0,0,0-6.57,6.56v95.11a6.57,6.57,0,0,0,6.57,6.56H373.6a6.57,6.57,0,0,0,6.58-6.56V276.57A6.56,6.56,0,0,0,373.6,270ZM220.26,327.88q-6.51,5.59-17.41,5.59h-6.45v20.71H182.85V294.07h21.21q22.71,0,22.71,19.15A18.39,18.39,0,0,1,220.26,327.88ZM277.9,345.8q-8.74,8.37-23.28,8.38H233.34V294.07h21.28q32,0,32,29.29Q286.65,337.42,277.9,345.8Zm51.23-40.7h-21.2v14.75h19.49v11H307.93v23.35H294.39V294.07h34.74Z" fill="#fff"/></svg>