<svg id="Layer_1" data-name="Layer 1" xmlns="http://www.w3.org/2000/svg" viewBox="0 0 512 512"><title>png-file-flat</title><path d="M55,9.14H457a55,55,0,0,1,55,55V447.88a55,55,0,0,1-55,55H55a55,55,0,0,1-55-55V64.13A55,55,0,0,1,55,9.14Z" transform="translate(512) rotate(90)" fill="#e6d6a6"/><rect x="20.24" y="11.1" width="471.53" height="489.81" rx="43.89" ry="43.89" fill="#b94355"/><path d="M269.59,88.2l-.05-.06H145.69a9.59,9.59,0,0,0-9.59,9.59V414.27a9.59,9.59,0,0,0,9.59,9.59H366.31a9.59,9.59,0,0,0,9.59-9.59V194.5H269.59Z" fill="#37c299"/><polygon points="269.59 194.49 375.88 194.49 269.59 88.2 269.59 194.49" fill="#4dcca4"/><polygon points="369.17 300.79 369.17 194.5 369.16 194.49 262.86 194.49 262.86 194.49 369.17 300.79" fill="#333" opacity="0.1"/><path d="M192.29,356.55v19.68H179.42V319.1h20.16q21.59,0,21.59,18.21A17.47,17.47,0,0,1,215,351.24q-6.2,5.32-16.55,5.32Zm0-27.57v17.81h5.06q10.28,0,10.28-9,0-8.8-10.28-8.8Z" fill="#eff0f0"/><path d="M278.81,376.23h-13l-23.55-35.9a51.86,51.86,0,0,1-2.87-4.74h-.16q.32,3,.32,9.24v31.39H227.42V319.1h13.86L264,353.88q1.55,2.35,2.87,4.66H267a61.07,61.07,0,0,1-.32-7.85V319.1h12.15Z" fill="#eff0f0"/><path d="M336.65,372.41q-8.37,4.82-20.8,4.82-13.78,0-21.73-7.63t-7.95-21q0-13.47,8.69-22T318,318.15a46.93,46.93,0,0,1,16,2.51v12.07q-6.61-3.82-16.17-3.82a17.36,17.36,0,0,0-13,5.2q-5,5.2-5,13.88t4.52,13.63q4.52,4.82,12.21,4.82a17,17,0,0,0,7.33-1.31V354H312.35V343.69h24.3Z" fill="#eff0f0"/></svg>