<svg id="Layer_1" data-name="Layer 1" xmlns="http://www.w3.org/2000/svg" viewBox="0 0 512 512"><title>zip</title><rect width="512" height="512" fill="#5168ae"/><path d="M380.1,189.2,272.34,81.45a8,8,0,0,0-4.88-2H141.32a16.12,16.12,0,0,0-5.47,1.16l-4.8,4.81a15.91,15.91,0,0,0-1.17,5.47V421.13a16,16,0,0,0,1.17,5.47l4.8,4.8a16.15,16.15,0,0,0,5.47,1.17H370.67a16.16,16.16,0,0,0,5.49-1.17l4.8-4.8a16,16,0,0,0,1.17-5.47v-227A8,8,0,0,0,380.1,189.2Zm-5.24,233.6-2.51,2.52a9.05,9.05,0,0,1-1.69.26H141.32a8.94,8.94,0,0,1-1.67-.26l-2.51-2.52a8,8,0,0,1-.28-1.67V90.87a8,8,0,0,1,.28-1.68l2.51-2.52a8.93,8.93,0,0,1,1.67-.26H264.48V197H375.14V421.13A9.06,9.06,0,0,1,374.86,422.8Z" fill="#fff"/><path d="M370.67,436.25H141.32a19.58,19.58,0,0,1-7-1.5,3.53,3.53,0,0,1-1.09-.76l-4.81-4.8a3.62,3.62,0,0,1-.75-1.09,19.7,19.7,0,0,1-1.5-7V90.87a19.6,19.6,0,0,1,1.5-7,3.5,3.5,0,0,1,.75-1.09l4.8-4.81a3.72,3.72,0,0,1,1.12-.76,19.79,19.79,0,0,1,7-1.48H267.46a11.69,11.69,0,0,1,7.48,3.1L382.7,186.61a11.59,11.59,0,0,1,3.11,7.48v227a20.06,20.06,0,0,1-1.48,7,3.68,3.68,0,0,1-.76,1.11l-4.81,4.8a3.47,3.47,0,0,1-1.1.76A19.58,19.58,0,0,1,370.67,436.25ZM140.54,421l.89.89H370.56l.9-.9V200.68h-107A3.67,3.67,0,0,1,260.8,197V90.09H141.44l-.89.9Zm127.6-227.68h107a3.66,3.66,0,0,1,3.3,2.07v-1.31a4.57,4.57,0,0,0-1-2.28L269.73,84.05a4.55,4.55,0,0,0-2.27-.95h-1.36a3.79,3.79,0,0,1,1,.71,3.68,3.68,0,0,1,1.09,2.6Z" fill="#fff"/><path d="M292.89,304.47h-5.34v18.74h5.34q10.8,0,10.8-9.48C303.69,307.57,300.09,304.47,292.89,304.47Z" fill="#fff"/><path d="M373.6,270H138.4a6.57,6.57,0,0,0-6.59,6.57v95.11a6.56,6.56,0,0,0,6.59,6.56H373.6a6.57,6.57,0,0,0,6.59-6.56V276.57A6.57,6.57,0,0,0,373.6,270ZM242.45,354.17H194v-7.8l30.81-41.27H196.27v-11h46.1v7.59l-30.14,41.52h30.22Zm25.17-49.62h-5V343.7h5v10.47H244V343.7h5V304.55h-5V294.08h23.59Zm43.82,23.32q-6.51,5.6-17.43,5.6h-6.45v20.7H274V294.08h21.2q22.71,0,22.72,19.15A18.37,18.37,0,0,1,311.43,327.88Z" fill="#fff"/></svg>